<svg width="1440" height="149" viewBox="0 0 1440 149" fill="none" xmlns="http://www.w3.org/2000/svg" preserveAspectRatio="none">
<path opacity="0.25" d="M1440 149V91.5232C1382.65 63.9582 1315.69 51.5788 1250.4 56.7566C1165.97 63.4243 1086.8 98.1165 1002.24 103.319C913.632 108.733 825.192 82.3597 740.4 59.5379C657.276 37.1879 574.44 28.6453 489.12 43.2969C445.74 50.7469 405.3 65.4482 363.78 79.7274C252.612 117.958 104.4 166.743 0 83.8497V149L1440 149Z" fill="#011627"/>
<path d="M1440 149V142.009C1260.08 75.7417 1063.09 60.4443 869.004 96.1423C817.404 105.629 767.928 121.125 715.872 128.997C645.072 139.712 580.896 113.799 517.2 85.0418C446.484 53.1185 376.8 30.7437 298.56 37.25C194.724 45.9417 91.6079 94.0066 0 142.556V149L1440 149Z" fill="#011627"/>
</svg>
