<svg width="1440" height="140" viewBox="0 0 1440 140" fill="none" xmlns="http://www.w3.org/2000/svg" preserveAspectRatio="none">
<path opacity="0.25" d="M0 0V54.005C57.348 79.905 124.308 91.5367 189.6 86.6717C274.032 80.4067 353.196 47.81 437.76 42.9217C526.368 37.835 614.808 62.615 699.6 84.0583C782.724 105.058 865.56 113.085 950.88 99.3183C994.26 92.3183 1034.7 78.505 1076.22 65.0883C1187.39 29.1667 1335.6 -16.6717 1440 61.215V0H0Z" fill="#011627"/>
<path d="M0 0V6.56833C179.916 68.8333 376.908 83.2067 570.996 49.665C622.596 40.7517 672.072 26.1917 724.128 18.795C794.928 8.72667 859.104 33.075 922.8 60.095C993.516 90.09 1063.2 111.113 1141.44 105C1245.28 96.8333 1348.39 51.6717 1440 6.055V0H0Z" fill="#011627"/>
</svg>
