<svg width="1440" height="188" viewBox="0 0 1440 188" fill="none" xmlns="http://www.w3.org/2000/svg" preserveAspectRatio="none">
<g clip-path="url(#clip0_10_15)">
<path d="M257.208 34.8681C351.996 61.6 451.464 114.217 547.392 135.789C646.104 158.042 749.064 156.746 847.932 135.289C917.34 120.235 984.732 95.4158 1054.33 81.5686C1183.66 56.1272 1317.04 69.0379 1440 118.901V-4.57764e-05L0 -4.57764e-05V31.0566C81.3719 1.38596 173.148 11.1521 257.208 34.8681Z" fill="#011627" fill-opacity="0.71"/>
</g>
<path d="M386.471 88.4227C456.216 71.5183 523.749 41.219 593.302 22.842C692.375 -3.35267 795.55 -4.935 894.468 22.231C990.595 48.5667 1090.27 112.8 1185.26 145.434C1269.49 174.386 1361.46 186.308 1443 150.134V0H0V42.8483C123.215 103.72 256.87 119.481 386.471 88.4227Z" fill="#011627"/>
<defs>
<clipPath id="clip0_10_15">
<rect width="1440" height="154" fill="white" transform="translate(1440 154) rotate(-180)"/>
</clipPath>
</defs>
</svg>
